<svg version="1.1" viewBox="0 0 1984 1696" width="1280" height="1280" xmlns="http://www.w3.org/2000/svg">
<path transform="translate(0)" d="m0 0h1984v1696h-1984z"/>
<path transform="translate(986,632)" d="m0 0h127l107 3 32 2 24 3 29 6 20 7 27 14 22 15 13 11 9 9 9 11 9 12 9 16 8 17 6 16 6 26 2 19v14l-4 34-4 21-6 17-12 25-10 16-10 13-4 5-11 9-15 8-11 5h-2v2l5 2 16 8 28 13 19 11 16 12 12 11 8 8 11 14 10 15 13 25 8 22 5 21 3 25v22l-3 26-6 31-5 17-7 17-10 19-7 11-11 14-12 13-14 13-14 10-13 8-23 11-28 9-22 5-26 3-35 2-206 1h-94l-17-2-13-2-11 4-9 4-20 4-44 3h-57l-41-4-28-6-29-8-16-6-33-16-14-8-16-11-10-8-15-13-8-8-9-11-8-9-10-15-8-14-12-23-9-24-7-23-6-29-4-33-2-32-1-33v-448l3-1h143l25 1 1 1 1 459 3 34 4 23 6 21 8 16 8 12 9 10 10 9 11 7 18 8 20 6 21 4 9 1 23 1 27-2 26-5 24-8 16-9 11-9 5-5 6-8 4-10 2-20 1-41v-491l2-5 5-2z" fill="#fff"/>
<path transform="translate(1159,1088)" d="m0 0h63l25 2 20 4 17 6 12 7 13 11 11 15 8 17 5 18 1 5v11l-5 25-5 14-10 16-13 13-14 9-15 7-15 4-25 2h-87l-11-1-1-1v-9l6-36 6-28 7-50 5-43 1-17z"/>
<path transform="translate(1160,769)" d="m0 0h21l21 2 17 4 12 5 10 5 11 9 5 4 9 12 8 15 5 16 1 7v23l-3 14-7 16-6 10-11 12-10 8-11 7-14 5-17 4-14 2h-29l-1-2-1-39v-137z"/>
</svg>
