
<svg version="1.0" xmlns="http://www.w3.org/2000/svg"
 width="124.000000pt" height="106.000000pt" viewBox="0 0 124.000000 106.000000"
 preserveAspectRatio="xMidYMid meet">
<metadata>
Created by potrace 1.10, written by Peter Selinger 2001-2011
</metadata>
<g transform="translate(0.000000,106.000000) scale(0.100000,-0.100000)"
fill="#000000" stroke="none">
<path d="M594 685 l-29 -25 -2 -157 c-1 -138 -4 -159 -19 -170 -16 -11 -49 -9
-64 4 -3 3 -7 74 -8 160 -4 140 -6 157 -25 179 -17 20 -30 24 -72 24 -86 0
-90 -9 -90 -214 0 -199 12 -244 77 -301 58 -49 63 -50 363 -43 159 4 185 13
229 82 19 29 26 53 26 89 0 54 -10 78 -49 121 -14 16 -20 26 -13 22 11 -6 18
17 13 46 0 4 3 18 8 32 6 13 7 27 3 31 -4 3 -7 12 -7 18 -2 33 -33 71 -77 93
-37 19 -68 25 -141 29 -89 4 -96 3 -123 -20z m-164 -178 c0 -119 4 -165 15
-186 20 -40 78 -53 130 -29 l25 11 0 185 0 185 107 -7 c153 -11 193 -37 193
-129 0 -38 -5 -53 -26 -74 -14 -14 -24 -26 -22 -27 2 -1 15 -7 30 -14 39 -16
60 -54 60 -108 0 -53 -21 -89 -68 -116 -24 -14 -64 -17 -224 -20 -190 -3 -196
-2 -236 21 -24 13 -52 41 -65 65 -22 38 -24 54 -27 209 -2 92 -2 173 1 180 3
7 24 12 56 12 l51 0 0 -158z"/>
<path d="M720 525 c0 -52 2 -55 24 -55 53 0 76 65 34 94 -44 31 -58 22 -58
-39z"/>
<path d="M720 351 c0 -16 -3 -43 -6 -60 -6 -30 -6 -31 33 -31 51 0 83 23 83
60 0 35 -32 60 -77 60 -30 0 -33 -3 -33 -29z"/>
</g>
</svg>
